<?xml version="1.0" encoding="UTF-8" standalone="no"?>
<svg
   xmlns:dc="http://purl.org/dc/elements/1.1/"
   xmlns:cc="http://creativecommons.org/ns#"
   xmlns:rdf="http://www.w3.org/1999/02/22-rdf-syntax-ns#"
   xmlns:svg="http://www.w3.org/2000/svg"
   xmlns="http://www.w3.org/2000/svg"
   xmlns:sodipodi="http://sodipodi.sourceforge.net/DTD/sodipodi-0.dtd"
   xmlns:inkscape="http://www.inkscape.org/namespaces/inkscape"
   width="210mm"
   height="297mm"
   viewBox="0 0 210 297"
   version="1.1"
   id="svg8"
   inkscape:version="1.0.1 (3bc2e813f5, 2020-09-07)"
   sodipodi:docname="blikki.svg">
  <defs
     id="defs2" />
  <sodipodi:namedview
     id="base"
     pagecolor="#ffffff"
     bordercolor="#666666"
     borderopacity="1.0"
     inkscape:pageopacity="0.0"
     inkscape:pageshadow="2"
     inkscape:zoom="0.35"
     inkscape:cx="400"
     inkscape:cy="560"
     inkscape:document-units="mm"
     inkscape:current-layer="layer1"
     inkscape:document-rotation="0"
     showgrid="false"
     inkscape:window-width="1267"
     inkscape:window-height="1009"
     inkscape:window-x="104"
     inkscape:window-y="0"
     inkscape:window-maximized="0" />
  <metadata
     id="metadata5">
    <rdf:RDF>
      <cc:Work
         rdf:about="">
        <dc:format>image/svg+xml</dc:format>
        <dc:type
           rdf:resource="http://purl.org/dc/dcmitype/StillImage" />
        <dc:title></dc:title>
      </cc:Work>
    </rdf:RDF>
  </metadata>
  <g
     inkscape:label="Layer 1"
     inkscape:groupmode="layer"
     id="layer1">
    <path
       id="path835"
       style="fill:#000000;stroke:none;stroke-width:0.264583"
       d="m 160.2619,140.60715 c 0.23761,20.16706 -12.45484,39.69556 -30.98103,47.66719 -18.5038,8.49074 -41.753869,4.65455 -56.549387,-9.33021 C 57.60259,165.32067 51.910003,142.45417 58.885717,123.32776 65.34231,104.22071 83.78733,89.999532 103.90823,88.615234 c 20.27164,-1.88132 40.93821,9.440047 50.26549,27.536616 3.98662,7.4927 6.09656,15.968 6.08818,24.4553 z" />
    <path
       id="path837"
       style="fill:#ffffff;stroke:none;stroke-width:0.264583"
       d="m 99.029761,123.22025 c 0.232701,6.90777 -6.865827,12.71206 -13.589545,11.11377 -6.816438,-1.1428 -11.096856,-9.25194 -8.195906,-15.52478 2.472837,-6.45385 11.269975,-9.04056 16.842469,-4.95203 3.060277,2.06076 4.96761,5.67329 4.942982,9.36304 z" />
    <path
       id="circle839"
       style="fill:#ffffff;stroke:none;stroke-width:0.264583"
       d="m 138.33929,123.22025 c 0.2327,6.90778 -6.86583,12.71206 -13.58955,11.11377 -6.81644,-1.1428 -11.09686,-9.25194 -8.19591,-15.52478 2.47284,-6.45385 11.26998,-9.04056 16.84248,-4.95203 3.06028,2.06076 4.96761,5.67329 4.94298,9.36304 z" />
    <path
       id="circle841"
       style="fill:#000000;stroke:none;stroke-width:0.131997"
       d="m 133.04763,123.22025 c -0.0624,5.02142 -7.12698,6.9622 -10.43348,3.6434 -2.85067,-2.31042 -1.73596,-7.1379 1.60807,-8.34383 3.53176,-1.72142 8.78703,0.40234 8.82541,4.70043 z" />
    <path
       id="ellipse843"
       style="fill:#000000;stroke:none;stroke-width:0.131997"
       d="m 93.738102,123.22025 c -0.06243,5.02142 -7.126974,6.9622 -10.433478,3.6434 -2.85067,-2.31042 -1.735961,-7.1379 1.608068,-8.34383 3.531757,-1.72142 8.787029,0.40234 8.82541,4.70043 z" />
  </g>
</svg>
